<svg xmlns="http://www.w3.org/2000/svg" xmlns:xlink="http://www.w3.org/1999/xlink" width="500" zoomAndPan="magnify" viewBox="0 0 375 374.999991" height="500" preserveAspectRatio="xMidYMid meet" version="1.0"><defs><clipPath id="id1"><path d="M 37.5 37.5 L 93 37.5 L 93 93 L 37.5 93 Z M 37.5 37.5 " clip-rule="nonzero"/></clipPath><clipPath id="id2"><path d="M 282 37.5 L 337.5 37.5 L 337.5 93 L 282 93 Z M 282 37.5 " clip-rule="nonzero"/></clipPath><clipPath id="id3"><path d="M 282 282 L 337.5 282 L 337.5 337.5 L 282 337.5 Z M 282 282 " clip-rule="nonzero"/></clipPath><clipPath id="id4"><path d="M 37.5 282 L 93 282 L 93 337.5 L 37.5 337.5 Z M 37.5 282 " clip-rule="nonzero"/></clipPath></defs><g clip-path="url(#id1)"><path fill="#d9d9d9" d="M 47.5 47.5 L 92.5 47.5 L 92.5 37.5 L 42.5 37.5 C 39.738281 37.5 37.5 39.738281 37.5 42.5 L 37.5 92.5 L 47.5 92.5 L 47.5 47.5 " fill-opacity="1" fill-rule="nonzero"/></g><g clip-path="url(#id2)"><path fill="#d9d9d9" d="M 327.5 92.5 L 337.5 92.5 L 337.5 42.5 C 337.5 39.738281 335.261719 37.5 332.5 37.5 L 282.5 37.5 L 282.5 47.5 L 327.5 47.5 L 327.5 92.5 " fill-opacity="1" fill-rule="nonzero"/></g><g clip-path="url(#id3)"><path fill="#d9d9d9" d="M 327.5 327.5 L 282.5 327.5 L 282.5 337.5 L 332.5 337.5 C 335.261719 337.5 337.5 335.261719 337.5 332.5 L 337.5 282.5 L 327.5 282.5 L 327.5 327.5 " fill-opacity="1" fill-rule="nonzero"/></g><g clip-path="url(#id4)"><path fill="#d9d9d9" d="M 42.5 337.5 L 92.5 337.5 L 92.5 327.5 L 47.5 327.5 L 47.5 282.5 L 37.5 282.5 L 37.5 332.5 C 37.5 335.261719 39.738281 337.5 42.5 337.5 " fill-opacity="1" fill-rule="nonzero"/></g><path fill="#d9d9d9" d="M 282.5 212.5 C 282.5 220.457031 277.753906 227.542969 270.746094 230.726562 L 272.449219 203.460938 L 279.320312 182.847656 C 281.179688 183.578125 282.5 185.386719 282.5 187.5 Z M 242.75 292.449219 L 210.824219 319.054688 C 206.53125 322.632812 201.480469 325.144531 196.113281 326.453125 L 221.539062 275.597656 L 260.0625 241.355469 L 258.851562 260.6875 C 258.085938 272.984375 252.214844 284.5625 242.75 292.449219 Z M 132.25 292.449219 C 122.785156 284.5625 116.914062 272.984375 116.148438 260.6875 L 114.9375 241.355469 L 153.460938 275.597656 L 178.886719 326.453125 C 173.519531 325.144531 168.46875 322.632812 164.175781 319.054688 Z M 92.5 212.5 L 92.5 187.5 C 92.5 185.386719 93.820312 183.578125 95.679688 182.847656 L 102.550781 203.460938 L 104.253906 230.726562 C 97.246094 227.542969 92.5 220.457031 92.5 212.5 Z M 252.84375 187.722656 L 259.457031 172.296875 L 262.484375 202.59375 L 261.746094 214.421875 Z M 216.707031 266.511719 L 204.207031 260.261719 L 210.855469 246.972656 L 245.851562 240.609375 Z M 164.144531 246.972656 L 170.789062 260.261719 L 158.289062 266.511719 L 129.148438 240.609375 Z M 112.515625 202.59375 L 115.542969 172.296875 L 122.15625 187.722656 L 113.253906 214.421875 Z M 226.800781 157.5 L 148.199219 157.5 L 117.890625 148.839844 L 118.871094 139.019531 C 120.667969 121.050781 135.640625 107.5 153.699219 107.5 L 221.300781 107.5 C 239.359375 107.5 254.332031 121.050781 256.128906 139.019531 L 257.109375 148.839844 Z M 245.457031 179.574219 L 244.53125 178.855469 C 239.261719 174.757812 232.324219 172.5 225 172.5 C 224.851562 172.5 224.710938 172.507812 224.5625 172.507812 L 230.121094 166.949219 L 253.761719 160.199219 Z M 211.984375 236.601562 L 208.492188 198.1875 C 213.265625 200.984375 219 202.5 225 202.5 C 232.324219 202.5 239.261719 200.242188 244.53125 196.140625 L 244.988281 195.785156 L 255.933594 228.609375 Z M 193.773438 258.773438 L 187.5 261.910156 L 181.226562 258.773438 L 175.589844 247.5 L 199.410156 247.5 Z M 177.5 268.089844 L 185.261719 271.972656 C 186.671875 272.675781 188.328125 272.675781 189.734375 271.972656 L 197.5 268.089844 L 208.027344 273.355469 L 195.832031 282.5 L 179.167969 282.5 L 166.972656 273.355469 Z M 130.007812 195.785156 L 130.46875 196.140625 C 135.738281 200.242188 142.675781 202.5 150 202.5 C 156 202.5 161.734375 200.984375 166.507812 198.1875 L 163.015625 236.601562 L 119.066406 228.609375 Z M 144.878906 166.949219 L 150.4375 172.507812 C 150.289062 172.507812 150.144531 172.5 150 172.5 C 142.675781 172.5 135.738281 174.757812 130.46875 178.855469 L 129.542969 179.574219 L 121.238281 160.199219 Z M 200.429688 182.5 L 174.570312 182.5 L 159.570312 167.5 L 215.429688 167.5 Z M 177.066406 192.5 L 197.933594 192.5 L 202.023438 237.5 L 172.976562 237.5 Z M 164.355469 187.5 L 163.390625 188.25 C 159.917969 190.949219 155.039062 192.5 150 192.5 C 144.960938 192.5 140.082031 190.949219 136.609375 188.25 L 135.644531 187.5 L 136.609375 186.75 C 140.082031 184.050781 144.960938 182.5 150 182.5 C 155.039062 182.5 159.917969 184.050781 163.390625 186.75 Z M 211.609375 186.75 C 215.082031 184.050781 219.960938 182.5 225 182.5 C 230.039062 182.5 234.917969 184.050781 238.390625 186.75 L 239.355469 187.5 L 238.390625 188.25 C 234.917969 190.949219 230.039062 192.5 225 192.5 C 219.960938 192.5 215.082031 190.949219 211.609375 188.25 L 210.644531 187.5 Z M 171.445312 289.207031 L 174.5 291.5 C 175.367188 292.148438 176.417969 292.5 177.5 292.5 L 197.5 292.5 C 198.582031 292.5 199.632812 292.148438 200.5 291.5 L 203.554688 289.207031 L 187.5 321.316406 Z M 187.5 47.5 C 237.125 47.5 277.5 87.875 277.5 137.5 C 277.5 150.230469 275.457031 162.8125 271.433594 174.890625 L 270.148438 178.738281 L 266.078125 138.023438 C 263.765625 114.921875 244.515625 97.5 221.300781 97.5 L 153.699219 97.5 C 130.484375 97.5 111.234375 114.921875 108.921875 138.023438 L 104.851562 178.738281 L 103.566406 174.890625 C 99.539062 162.8125 97.5 150.230469 97.5 137.5 C 97.5 87.875 137.875 47.5 187.5 47.5 " fill-opacity="1" fill-rule="nonzero"/></svg>